<svg width="48" height="48" viewBox="0 0 48 48" fill="none" xmlns="http://www.w3.org/2000/svg">
<circle cx="24" cy="24" r="24" fill="#FFBE0A"/>
<path fill-rule="evenodd" clip-rule="evenodd" d="M19.2 21.6H16.8C16.1635 21.6 15.553 21.3471 15.1029 20.8971C14.6529 20.447 14.4 19.8365 14.4 19.2C14.4 18.5635 14.6529 17.953 15.1029 17.5029C15.553 17.0529 16.1635 16.8 16.8 16.8H19.2C19.8365 16.8 20.447 17.0529 20.8971 17.5029C21.3471 17.953 21.6 18.5635 21.6 19.2C21.6 19.8365 21.3471 20.447 20.8971 20.8971C20.447 21.3471 19.8365 21.6 19.2 21.6ZM16.8 28.8H31.2C31.8365 28.8 32.447 29.0529 32.8971 29.5029C33.3471 29.953 33.6 30.5635 33.6 31.2C33.6 31.8365 33.3471 32.447 32.8971 32.897C32.447 33.3471 31.8365 33.6 31.2 33.6H16.8C16.1635 33.6 15.553 33.3471 15.1029 32.897C14.6529 32.447 14.4 31.8365 14.4 31.2C14.4 30.5635 14.6529 29.953 15.1029 29.5029C15.553 29.0529 16.1635 28.8 16.8 28.8ZM28.8 16.8H31.2C31.8365 16.8 32.447 17.0529 32.8971 17.5029C33.3471 17.953 33.6 18.5635 33.6 19.2C33.6 19.8365 33.3471 20.447 32.8971 20.8971C32.447 21.3471 31.8365 21.6 31.2 21.6H28.8C28.1635 21.6 27.553 21.3471 27.1029 20.8971C26.6529 20.447 26.4 19.8365 26.4 19.2C26.4 18.5635 26.6529 17.953 27.1029 17.5029C27.553 17.0529 28.1635 16.8 28.8 16.8Z" fill="black"/>
</svg>
