<svg width="48" height="48" viewBox="0 0 48 48" fill="none" xmlns="http://www.w3.org/2000/svg">
<circle cx="24" cy="24" r="24" fill="#FFBE0A"/>
<path d="M30 32C30 35.3137 27.3137 38 24 38C20.6863 38 18 35.3137 18 32C18 28.6863 20.6863 26 24 26C27.3137 26 30 28.6863 30 32Z" fill="black"/>
<path fill-rule="evenodd" clip-rule="evenodd" d="M14.3666 25.0218C14.0742 24.9024 13.8083 24.7264 13.584 24.504C13.3591 24.2809 13.1805 24.0154 13.0587 23.723C12.9368 23.4305 12.8741 23.1168 12.8741 22.8C12.8741 22.4832 12.9368 22.1695 13.0587 21.877C13.1805 21.5845 13.3591 21.3191 13.584 21.096L15.504 19.2L13.584 17.304C13.1321 16.8521 12.8782 16.2391 12.8782 15.6C12.8782 14.9609 13.1321 14.3479 13.584 13.896C14.0359 13.4441 14.6489 13.1902 15.288 13.1902C15.9271 13.1902 16.5401 13.4441 16.992 13.896L20.592 17.496C20.817 17.7191 20.9955 17.9846 21.1173 18.277C21.2392 18.5695 21.3019 18.8832 21.3019 19.2C21.3019 19.5168 21.2392 19.8305 21.1173 20.123C20.9955 20.4154 20.817 20.6809 20.592 20.904L16.992 24.504C16.7677 24.7264 16.5018 24.9024 16.2094 25.0218C15.917 25.1413 15.6039 25.2018 15.288 25.2C14.9721 25.2018 14.659 25.1413 14.3666 25.0218ZM32.3666 25.0218C32.0742 24.9024 31.8083 24.7264 31.584 24.504L27.984 20.904C27.7591 20.6809 27.5805 20.4154 27.4587 20.123C27.3368 19.8305 27.2741 19.5168 27.2741 19.2C27.2741 18.8832 27.3368 18.5695 27.4587 18.277C27.5805 17.9846 27.7591 17.7191 27.984 17.496L31.584 13.896C31.8078 13.6722 32.0734 13.4947 32.3658 13.3736C32.6582 13.2525 32.9715 13.1902 33.288 13.1902C33.6045 13.1902 33.9178 13.2525 34.2102 13.3736C34.5026 13.4947 34.7682 13.6722 34.992 13.896C35.2158 14.1198 35.3933 14.3854 35.5144 14.6778C35.6355 14.9702 35.6978 15.2835 35.6978 15.6C35.6978 15.9165 35.6355 16.2298 35.5144 16.5222C35.3933 16.8146 35.2158 17.0802 34.992 17.304L33.096 19.2L34.992 21.096C35.2169 21.3191 35.3955 21.5845 35.5173 21.877C35.6392 22.1695 35.7019 22.4832 35.7019 22.8C35.7019 23.1168 35.6392 23.4305 35.5173 23.723C35.3955 24.0154 35.2169 24.2809 34.992 24.504C34.7677 24.7264 34.5018 24.9024 34.2094 25.0218C33.917 25.1413 33.6039 25.2018 33.288 25.2C32.9721 25.2018 32.659 25.1413 32.3666 25.0218Z" fill="black"/>
</svg>
