<svg width="48" height="48" viewBox="0 0 48 48" fill="none" xmlns="http://www.w3.org/2000/svg">
<path d="M48 24C48 37.2548 37.2548 48 24 48C10.7452 48 0 37.2548 0 24C0 10.7452 10.7452 0 24 0C37.2548 0 48 10.7452 48 24Z" fill="#FFBE0A"/>
<path fill-rule="evenodd" clip-rule="evenodd" d="M24 31.3509C26.0609 31.3509 28.0596 30.6455 29.664 29.352C30.1541 28.9446 30.786 28.7486 31.4206 28.8071C31.7348 28.8361 32.0403 28.9267 32.3195 29.0737C32.5988 29.2207 32.8463 29.4213 33.048 29.664C33.4554 30.1541 33.6514 30.786 33.5928 31.4206C33.5343 32.0552 33.2261 32.6406 32.736 33.048C30.2848 35.0942 27.1931 36.2151 24 36.2151C20.807 36.2151 17.7152 35.0942 15.264 33.048C14.7739 32.6406 14.4657 32.0552 14.4072 31.4206C14.3486 30.786 14.5446 30.1541 14.952 29.664C15.3594 29.1739 15.9448 28.8657 16.5794 28.8071C17.214 28.7486 17.8459 28.9446 18.336 29.352C19.9404 30.6455 21.9391 31.3509 24 31.3509ZM18.1334 21.1955C17.7387 21.4592 17.2747 21.6 16.8 21.6C16.1635 21.6 15.553 21.3471 15.1029 20.8971C14.6529 20.447 14.4 19.8365 14.4 19.2C14.4 18.7253 14.5408 18.2613 14.8045 17.8666C15.0682 17.4719 15.443 17.1643 15.8816 16.9827C16.3201 16.801 16.8027 16.7535 17.2682 16.8461C17.7338 16.9387 18.1614 17.1673 18.4971 17.5029C18.8327 17.8386 19.0613 18.2662 19.1539 18.7318C19.2465 19.1973 19.199 19.6799 19.0173 20.1184C18.8357 20.557 18.5281 20.9318 18.1334 21.1955ZM29.8666 17.2045C30.2613 16.9408 30.7253 16.8 31.2 16.8C31.8365 16.8 32.447 17.0529 32.8971 17.5029C33.3471 17.953 33.6 18.5635 33.6 19.2C33.6 19.6747 33.4592 20.1387 33.1955 20.5334C32.9318 20.928 32.557 21.2357 32.1184 21.4173C31.6799 21.599 31.1973 21.6465 30.7318 21.5539C30.2662 21.4613 29.8386 21.2327 29.5029 20.8971C29.1673 20.5614 28.9387 20.1338 28.8461 19.6682C28.7535 19.2027 28.801 18.7201 28.9827 18.2816C29.1643 17.843 29.472 17.4682 29.8666 17.2045Z" fill="#272D33"/>
</svg>
