<svg width="48" height="48" viewBox="0 0 48 48" fill="none" xmlns="http://www.w3.org/2000/svg">
<circle cx="24" cy="24" r="24" fill="#FFBE0A"/>
<path fill-rule="evenodd" clip-rule="evenodd" d="M31.2 26.4H16.8C16.1635 26.4 15.553 26.6529 15.1029 27.1029C14.6529 27.553 14.4 28.1635 14.4 28.8C14.4 31.3461 15.4114 33.7879 17.2118 35.5882C19.0121 37.3886 21.4539 38.4 24 38.4C26.5461 38.4 28.9879 37.3886 30.7882 35.5882C32.5886 33.7879 33.6 31.3461 33.6 28.8C33.6 28.1635 33.3471 27.553 32.8971 27.1029C32.447 26.6529 31.8365 26.4 31.2 26.4ZM24 33.6C23.1583 33.5991 22.3315 33.3769 21.6028 32.9557C20.874 32.5344 20.2689 31.929 19.848 31.2H28.152C27.7311 31.929 27.126 32.5344 26.3972 32.9557C25.6685 33.3769 24.8417 33.5991 24 33.6Z" fill="black"/>
<path d="M36.7606 15.4961C36.1562 14.9269 35.3551 14.5795 34.5019 14.5166C33.6486 14.4537 32.7914 15.0224 32.0999 15.4961C31.3745 14.9892 30.4799 14.4166 29.5813 14.5101C28.6827 14.6036 27.8552 15.0134 27.2654 15.6571C26.6756 16.3007 26.3673 17.1304 26.4026 17.9791C26.438 18.8277 26.8143 19.6322 27.4558 20.2306L30.9964 23.562C31.2929 23.8361 31.6922 23.9897 32.1082 23.9897C32.5242 23.9897 32.9235 23.8361 33.22 23.562L36.7606 20.2306C37.4263 19.6015 37.7999 18.7504 37.7999 17.8634C37.7999 16.9763 37.4263 16.1253 36.7606 15.4961Z" fill="black"/>
<path d="M18.3021 14.5166C19.1553 14.5795 19.9565 14.9269 20.5609 15.4961C21.2266 16.1253 21.6002 16.9763 21.6002 17.8634C21.6002 18.7504 21.2266 19.6015 20.5609 20.2306L17.0203 23.562C16.7238 23.8361 16.3245 23.9897 15.9085 23.9897C15.4925 23.9897 15.0932 23.8361 14.7967 23.562L11.2561 20.2306C10.6146 19.6322 10.2383 18.8277 10.2029 17.9791C10.1676 17.1304 10.4759 16.3007 11.0657 15.6571C11.6555 15.0134 12.483 14.6036 13.3816 14.5101C14.2801 14.4166 15.1748 14.9893 15.9002 15.4961C16.5916 15.0224 17.4489 14.4537 18.3021 14.5166Z" fill="black"/>
</svg>
