<svg width="48" height="48" viewBox="0 0 48 48" fill="none" xmlns="http://www.w3.org/2000/svg">
<circle cx="24" cy="24" r="24" fill="#FFBE0A"/>
<path d="M13.584 24.504C13.8083 24.7264 14.0742 24.9024 14.3666 25.0218C14.659 25.1413 14.9721 25.2018 15.288 25.2C15.6039 25.2018 15.917 25.1413 16.2094 25.0218C16.5018 24.9024 16.7677 24.7264 16.992 24.504L20.592 20.904C20.817 20.6809 20.9955 20.4154 21.1173 20.123C21.2392 19.8305 21.3019 19.5168 21.3019 19.2C21.3019 18.8832 21.2392 18.5695 21.1173 18.277C20.9955 17.9846 20.817 17.7191 20.592 17.496L16.992 13.896C16.5401 13.4441 15.9271 13.1902 15.288 13.1902C14.6489 13.1902 14.0359 13.4441 13.584 13.896C13.1321 14.3479 12.8782 14.9609 12.8782 15.6C12.8782 16.2391 13.1321 16.8521 13.584 17.304L15.504 19.2L13.584 21.096C13.3591 21.3191 13.1805 21.5845 13.0587 21.877C12.9368 22.1695 12.8741 22.4832 12.8741 22.8C12.8741 23.1168 12.9368 23.4305 13.0587 23.723C13.1805 24.0154 13.3591 24.2809 13.584 24.504ZM31.584 24.504C31.8083 24.7264 32.0742 24.9024 32.3666 25.0218C32.659 25.1413 32.9721 25.2018 33.288 25.2C33.6039 25.2018 33.917 25.1413 34.2094 25.0218C34.5018 24.9024 34.7677 24.7264 34.992 24.504C35.2169 24.2809 35.3955 24.0154 35.5173 23.723C35.6392 23.4305 35.7019 23.1168 35.7019 22.8C35.7019 22.4832 35.6392 22.1695 35.5173 21.877C35.3955 21.5845 35.2169 21.3191 34.992 21.096L33.096 19.2L34.992 17.304C35.2158 17.0802 35.3933 16.8146 35.5144 16.5222C35.6355 16.2298 35.6978 15.9165 35.6978 15.6C35.6978 15.2835 35.6355 14.9702 35.5144 14.6778C35.3933 14.3854 35.2158 14.1198 34.992 13.896C34.7682 13.6722 34.5026 13.4947 34.2102 13.3736C33.9178 13.2525 33.6045 13.1902 33.288 13.1902C32.9715 13.1902 32.6582 13.2525 32.3658 13.3736C32.0734 13.4947 31.8078 13.6722 31.584 13.896L27.984 17.496C27.7591 17.7191 27.5805 17.9846 27.4587 18.277C27.3368 18.5695 27.2741 18.8832 27.2741 19.2C27.2741 19.5168 27.3368 19.8305 27.4587 20.123C27.5805 20.4154 27.7591 20.6809 27.984 20.904L31.584 24.504ZM24 0C19.2533 0 14.6131 1.40758 10.6663 4.04473C6.71954 6.68188 3.6434 10.4302 1.8269 14.8156C0.0103989 19.201 -0.464881 24.0266 0.461164 28.6822C1.38721 33.3377 3.67299 37.6141 7.02945 40.9706C10.3859 44.327 14.6623 46.6128 19.3178 47.5388C23.9734 48.4649 28.799 47.9896 33.1844 46.1731C37.5698 44.3566 41.3181 41.2805 43.9553 37.3337C46.5924 33.3869 48 28.7467 48 24C48 20.8483 47.3792 17.7274 46.1731 14.8156C44.967 11.9038 43.1992 9.25804 40.9706 7.02944C38.742 4.80083 36.0962 3.033 33.1844 1.82689C30.2726 0.620778 27.1517 0 24 0ZM24 43.2C20.2026 43.2 16.4905 42.0739 13.3331 39.9642C10.1756 37.8545 7.71472 34.8559 6.26152 31.3475C4.80832 27.8392 4.4281 23.9787 5.16893 20.2543C5.90977 16.5298 7.73839 13.1087 10.4236 10.4235C13.1087 7.73838 16.5298 5.90976 20.2543 5.16892C23.9787 4.42809 27.8392 4.80831 31.3475 6.26151C34.8559 7.71471 37.8545 10.1756 39.9642 13.333C42.0739 16.4905 43.2 20.2026 43.2 24C43.2 29.0921 41.1771 33.9757 37.5765 37.5764C33.9758 41.1771 29.0922 43.2 24 43.2Z" fill="black"/>
<path d="M30 32C30 35.3137 27.3137 38 24 38C20.6863 38 18 35.3137 18 32C18 28.6863 20.6863 26 24 26C27.3137 26 30 28.6863 30 32Z" fill="black"/>
</svg>
