<svg width="48" height="48" viewBox="0 0 48 48" fill="none" xmlns="http://www.w3.org/2000/svg">
<path d="M48 24C48 37.2548 37.2548 48 24 48C10.7452 48 0 37.2548 0 24C0 10.7452 10.7452 0 24 0C37.2548 0 48 10.7452 48 24Z" fill="#FFBE0A"/>
<path fill-rule="evenodd" clip-rule="evenodd" d="M17.496 22.584L16.8 23.304H16.704C16.4809 23.5289 16.2155 23.7075 15.923 23.8293C15.6305 23.9512 15.3168 24.0139 15 24.0139C14.6832 24.0139 14.3695 23.9512 14.077 23.8293C13.7846 23.7075 13.5191 23.5289 13.296 23.304C13.0711 23.0809 12.8925 22.8154 12.7707 22.523C12.6488 22.2305 12.5861 21.9168 12.5861 21.6C12.5861 21.2832 12.6488 20.9695 12.7707 20.677C12.8925 20.3845 13.0711 20.1191 13.296 19.896L14.016 19.2L13.296 18.504C12.8441 18.0393 12.5952 17.4142 12.6042 16.7661C12.6132 16.1179 12.8793 15.4999 13.344 15.048C13.8087 14.5961 14.4338 14.3472 15.0819 14.3562C15.7301 14.3652 16.3481 14.6313 16.8 15.096L17.4 15.816L18.096 15.096C18.5479 14.6313 19.1659 14.3652 19.8141 14.3562C20.4622 14.3472 21.0873 14.5961 21.552 15.048C22.0167 15.4999 22.2828 16.1179 22.2918 16.7661C22.3008 17.4142 22.0519 18.0393 21.6 18.504L20.88 19.2L21.6 19.896C21.825 20.1191 22.0035 20.3845 22.1253 20.677C22.2472 20.9695 22.3099 21.2832 22.3099 21.6C22.3099 21.9168 22.2472 22.2305 22.1253 22.523C22.0035 22.8154 21.825 23.0809 21.6 23.304C21.3769 23.5289 21.1115 23.7075 20.819 23.8293C20.5265 23.9512 20.2128 24.0139 19.896 24.0139C19.5792 24.0139 19.2655 23.9512 18.973 23.8293C18.6806 23.7075 18.4151 23.5289 18.192 23.304L17.496 22.584ZM14.5138 33.6079C14.5722 32.9789 14.8763 32.3983 15.36 31.992H15.264C17.7481 29.9771 20.8494 28.8774 24.048 28.8774C27.2466 28.8774 30.3479 29.9771 32.832 31.992C33.3157 32.3983 33.6198 32.9789 33.6782 33.6079C33.7366 34.2369 33.5447 34.8636 33.144 35.352C32.9425 35.595 32.6951 35.7959 32.4158 35.9431C32.1366 36.0904 31.8311 36.1811 31.5167 36.2101C31.2024 36.2391 30.8854 36.2057 30.584 36.112C30.2825 36.0183 30.0025 35.8661 29.76 35.664C28.1556 34.3705 26.1569 33.6651 24.096 33.6651C22.0351 33.6651 20.0364 34.3705 18.432 35.664C18.1895 35.8661 17.9095 36.0183 17.608 36.112C17.3066 36.2057 16.9896 36.2391 16.6753 36.2101C16.3609 36.1811 16.0554 36.0904 15.7762 35.9431C15.4969 35.7959 15.2495 35.595 15.048 35.352C14.6473 34.8636 14.4554 34.2369 14.5138 33.6079ZM35.219 14.5707C35.5114 14.6925 35.7769 14.871 36 15.096C36.2249 15.3191 36.4035 15.5845 36.5253 15.877C36.6472 16.1695 36.7099 16.4832 36.7099 16.8C36.7099 17.1168 36.6472 17.4305 36.5253 17.723C36.4035 18.0154 36.2249 18.2809 36 18.504L35.28 19.2L36 19.896C36.2249 20.1191 36.4035 20.3845 36.5253 20.677C36.6472 20.9695 36.7099 21.2832 36.7099 21.6C36.7099 21.9168 36.6472 22.2305 36.5253 22.523C36.4035 22.8154 36.2249 23.0809 36 23.304C35.7769 23.5289 35.5114 23.7075 35.219 23.8293C34.9265 23.9512 34.6128 24.0139 34.296 24.0139C33.9792 24.0139 33.6655 23.9512 33.373 23.8293C33.0806 23.7075 32.8151 23.5289 32.592 23.304L31.896 22.584L31.2 23.304C30.9769 23.5289 30.7114 23.7075 30.419 23.8293C30.1265 23.9512 29.8128 24.0139 29.496 24.0139C29.1792 24.0139 28.8655 23.9512 28.573 23.8293C28.2806 23.7075 28.0151 23.5289 27.792 23.304C27.5671 23.0809 27.3885 22.8154 27.2667 22.523C27.1448 22.2305 27.0821 21.9168 27.0821 21.6C27.0821 21.2832 27.1448 20.9695 27.2667 20.677C27.3885 20.3845 27.5671 20.1191 27.792 19.896L28.512 19.2L27.792 18.504C27.3401 18.0521 27.0862 17.4391 27.0862 16.8C27.0862 16.1609 27.3401 15.5479 27.792 15.096C28.2439 14.6441 28.8569 14.3902 29.496 14.3902C30.1351 14.3902 30.7481 14.6441 31.2 15.096L31.896 15.816L32.592 15.096C32.8151 14.871 33.0806 14.6925 33.373 14.5707C33.6655 14.4488 33.9792 14.3861 34.296 14.3861C34.6128 14.3861 34.9265 14.4488 35.219 14.5707Z" fill="black"/>
</svg>
