<svg width="48" height="48" viewBox="0 0 48 48" fill="none" xmlns="http://www.w3.org/2000/svg">
<circle cx="24" cy="24" r="24" fill="#FFBE0A"/>
<path d="M16.8 21.6H19.2C19.8365 21.6 20.447 21.3471 20.8971 20.8971C21.3471 20.447 21.6 19.8365 21.6 19.2C21.6 18.5635 21.3471 17.953 20.8971 17.5029C20.447 17.0529 19.8365 16.8 19.2 16.8H16.8C16.1635 16.8 15.553 17.0529 15.1029 17.5029C14.6529 17.953 14.4 18.5635 14.4 19.2C14.4 19.8365 14.6529 20.447 15.1029 20.8971C15.553 21.3471 16.1635 21.6 16.8 21.6ZM31.2 28.8H16.8C16.1635 28.8 15.553 29.0528 15.1029 29.5029C14.6529 29.953 14.4 30.5635 14.4 31.2C14.4 31.8365 14.6529 32.447 15.1029 32.897C15.553 33.3471 16.1635 33.6 16.8 33.6H31.2C31.8365 33.6 32.447 33.3471 32.8971 32.897C33.3471 32.447 33.6 31.8365 33.6 31.2C33.6 30.5635 33.3471 29.953 32.8971 29.5029C32.447 29.0528 31.8365 28.8 31.2 28.8ZM31.2 16.8H28.8C28.1635 16.8 27.553 17.0529 27.1029 17.5029C26.6529 17.953 26.4 18.5635 26.4 19.2C26.4 19.8365 26.6529 20.447 27.1029 20.8971C27.553 21.3471 28.1635 21.6 28.8 21.6H31.2C31.8365 21.6 32.447 21.3471 32.8971 20.8971C33.3471 20.447 33.6 19.8365 33.6 19.2C33.6 18.5635 33.3471 17.953 32.8971 17.5029C32.447 17.0529 31.8365 16.8 31.2 16.8ZM24 0C19.2533 0 14.6131 1.40758 10.6663 4.04473C6.71954 6.68188 3.6434 10.4302 1.8269 14.8156C0.0103988 19.201 -0.464881 24.0266 0.461164 28.6822C1.38721 33.3377 3.67299 37.6141 7.02945 40.9706C10.3859 44.327 14.6623 46.6128 19.3178 47.5388C23.9734 48.4649 28.799 47.9896 33.1844 46.1731C37.5698 44.3566 41.3181 41.2805 43.9553 37.3337C46.5924 33.3869 48 28.7467 48 24C48 20.8483 47.3792 17.7274 46.1731 14.8156C44.967 11.9038 43.1992 9.25804 40.9706 7.02944C38.742 4.80083 36.0962 3.033 33.1844 1.82689C30.2726 0.620778 27.1517 0 24 0ZM24 43.2C20.2026 43.2 16.4905 42.0739 13.3331 39.9642C10.1756 37.8545 7.71472 34.8559 6.26152 31.3475C4.80832 27.8392 4.4281 23.9787 5.16893 20.2543C5.90977 16.5298 7.73839 13.1087 10.4236 10.4235C13.1087 7.73838 16.5298 5.90976 20.2543 5.16892C23.9787 4.42809 27.8392 4.80831 31.3475 6.26151C34.8559 7.71471 37.8545 10.1756 39.9642 13.333C42.0739 16.4905 43.2 20.2026 43.2 24C43.2 29.0921 41.1771 33.9757 37.5765 37.5764C33.9758 41.1771 29.0922 43.2 24 43.2Z" fill="black"/>
</svg>
