<svg width="48" height="48" viewBox="0 0 48 48" fill="none" xmlns="http://www.w3.org/2000/svg">
<path d="M48 24C48 37.2548 37.2548 48 24 48C10.7452 48 0 37.2548 0 24C0 10.7452 10.7452 0 24 0C37.2548 0 48 10.7452 48 24Z" fill="#FFBE0A"/>
<path d="M16.8 23.304L17.496 22.584L18.192 23.304C18.4151 23.5289 18.6806 23.7075 18.973 23.8293C19.2655 23.9512 19.5792 24.0139 19.896 24.0139C20.2128 24.0139 20.5265 23.9512 20.819 23.8293C21.1115 23.7075 21.3769 23.5289 21.6 23.304C21.825 23.0809 22.0035 22.8154 22.1253 22.523C22.2472 22.2305 22.3099 21.9168 22.3099 21.6C22.3099 21.2832 22.2472 20.9695 22.1253 20.677C22.0035 20.3845 21.825 20.1191 21.6 19.896L20.88 19.2L21.6 18.504C22.0519 18.0393 22.3008 17.4142 22.2918 16.7661C22.2828 16.1179 22.0167 15.4999 21.552 15.048C21.0873 14.5961 20.4622 14.3472 19.8141 14.3562C19.1659 14.3652 18.5479 14.6313 18.096 15.096L17.4 15.816L16.8 15.096C16.3481 14.6313 15.7301 14.3652 15.0819 14.3562C14.4338 14.3472 13.8087 14.5961 13.344 15.048C12.8793 15.4999 12.6132 16.1179 12.6042 16.7661C12.5952 17.4142 12.8441 18.0393 13.296 18.504L14.016 19.2L13.296 19.896C13.0711 20.1191 12.8925 20.3845 12.7707 20.677C12.6488 20.9695 12.5861 21.2832 12.5861 21.6C12.5861 21.9168 12.6488 22.2305 12.7707 22.523C12.8925 22.8154 13.0711 23.0809 13.296 23.304C13.5191 23.5289 13.7846 23.7075 14.077 23.8293C14.3695 23.9512 14.6832 24.0139 15 24.0139C15.3168 24.0139 15.6305 23.9512 15.923 23.8293C16.2155 23.7075 16.4809 23.5289 16.704 23.304H16.8ZM15.36 31.992C14.8763 32.3983 14.5722 32.9789 14.5138 33.6079C14.4554 34.2369 14.6473 34.8636 15.048 35.352C15.2495 35.595 15.4969 35.7959 15.7762 35.9431C16.0554 36.0904 16.3609 36.1811 16.6753 36.2101C16.9896 36.2391 17.3066 36.2057 17.608 36.112C17.9095 36.0183 18.1895 35.8661 18.432 35.664C20.0364 34.3705 22.0351 33.6651 24.096 33.6651C26.1569 33.6651 28.1556 34.3705 29.76 35.664C30.0025 35.8661 30.2825 36.0183 30.584 36.112C30.8854 36.2057 31.2024 36.2391 31.5167 36.2101C31.8311 36.1811 32.1366 36.0904 32.4158 35.9431C32.6951 35.7959 32.9425 35.595 33.144 35.352C33.5447 34.8636 33.7366 34.2369 33.6782 33.6079C33.6198 32.9789 33.3157 32.3983 32.832 31.992C30.3479 29.9771 27.2466 28.8774 24.048 28.8774C20.8494 28.8774 17.7481 29.9771 15.264 31.992H15.36ZM24 0C19.2533 0 14.6131 1.40758 10.6663 4.04473C6.71954 6.68188 3.6434 10.4302 1.8269 14.8156C0.0103988 19.201 -0.464881 24.0266 0.461164 28.6822C1.38721 33.3377 3.67299 37.6141 7.02945 40.9706C10.3859 44.327 14.6623 46.6128 19.3178 47.5388C23.9734 48.4649 28.799 47.9896 33.1844 46.1731C37.5698 44.3566 41.3181 41.2805 43.9553 37.3337C46.5924 33.3869 48 28.7467 48 24C48 20.8483 47.3792 17.7274 46.1731 14.8156C44.967 11.9038 43.1992 9.25804 40.9706 7.02944C38.742 4.80083 36.0962 3.033 33.1844 1.82689C30.2726 0.620778 27.1517 0 24 0ZM24 43.2C20.2026 43.2 16.4905 42.0739 13.3331 39.9642C10.1756 37.8545 7.71472 34.8559 6.26152 31.3475C4.80832 27.8392 4.4281 23.9787 5.16893 20.2543C5.90977 16.5298 7.73839 13.1087 10.4236 10.4235C13.1087 7.73838 16.5298 5.90976 20.2543 5.16892C23.9787 4.42809 27.8392 4.80831 31.3475 6.26151C34.8559 7.71471 37.8545 10.1756 39.9642 13.333C42.0739 16.4905 43.2 20.2026 43.2 24C43.2 29.0921 41.1771 33.9757 37.5765 37.5764C33.9758 41.1771 29.0922 43.2 24 43.2ZM36 15.096C35.7769 14.871 35.5114 14.6925 35.219 14.5707C34.9265 14.4488 34.6128 14.3861 34.296 14.3861C33.9792 14.3861 33.6655 14.4488 33.373 14.5707C33.0806 14.6925 32.8151 14.871 32.592 15.096L31.896 15.816L31.2 15.096C30.7481 14.6441 30.1351 14.3902 29.496 14.3902C28.8569 14.3902 28.2439 14.6441 27.792 15.096C27.3401 15.5479 27.0862 16.1609 27.0862 16.8C27.0862 17.4391 27.3401 18.0521 27.792 18.504L28.512 19.2L27.792 19.896C27.5671 20.1191 27.3885 20.3845 27.2667 20.677C27.1448 20.9695 27.0821 21.2832 27.0821 21.6C27.0821 21.9168 27.1448 22.2305 27.2667 22.523C27.3885 22.8154 27.5671 23.0809 27.792 23.304C28.0151 23.5289 28.2806 23.7075 28.573 23.8293C28.8655 23.9512 29.1792 24.0139 29.496 24.0139C29.8128 24.0139 30.1265 23.9512 30.419 23.8293C30.7114 23.7075 30.9769 23.5289 31.2 23.304L31.896 22.584L32.592 23.304C32.8151 23.5289 33.0806 23.7075 33.373 23.8293C33.6655 23.9512 33.9792 24.0139 34.296 24.0139C34.6128 24.0139 34.9265 23.9512 35.219 23.8293C35.5114 23.7075 35.7769 23.5289 36 23.304C36.2249 23.0809 36.4035 22.8154 36.5253 22.523C36.6472 22.2305 36.7099 21.9168 36.7099 21.6C36.7099 21.2832 36.6472 20.9695 36.5253 20.677C36.4035 20.3845 36.2249 20.1191 36 19.896L35.28 19.2L36 18.504C36.2249 18.2809 36.4035 18.0154 36.5253 17.723C36.6472 17.4305 36.7099 17.1168 36.7099 16.8C36.7099 16.4832 36.6472 16.1695 36.5253 15.877C36.4035 15.5845 36.2249 15.3191 36 15.096Z" fill="black"/>
</svg>
