<svg width="48" height="48" viewBox="0 0 48 48" fill="none" xmlns="http://www.w3.org/2000/svg">
<circle cx="24" cy="24" r="24" fill="#FFBE0A"/>
<path d="M16.7506 20.1701L16.0546 20.8901H15.9586C15.7355 21.115 15.47 21.2936 15.1776 21.4154C14.8851 21.5373 14.5714 21.6 14.2546 21.6C13.9378 21.6 13.6241 21.5373 13.3316 21.4154C13.0391 21.2936 12.7737 21.115 12.5506 20.8901C12.3256 20.667 12.1471 20.4015 12.0252 20.1091C11.9034 19.8166 11.8407 19.5029 11.8407 19.1861C11.8407 18.8693 11.9034 18.5556 12.0252 18.2631C12.1471 17.9706 12.3256 17.7052 12.5506 17.4821L13.2706 16.7861L12.5506 16.0901C12.0987 15.6254 11.8498 15.0003 11.8588 14.3521C11.8678 13.704 12.1339 13.086 12.5986 12.6341C13.0632 12.1822 13.6884 11.9333 14.3365 11.9423C14.9847 11.9513 15.6027 12.2174 16.0546 12.6821L16.6546 13.4021L17.3506 12.6821C17.8025 12.2174 18.4205 11.9513 19.0686 11.9423C19.7168 11.9333 20.3419 12.1822 20.8066 12.6341C21.2712 13.086 21.5373 13.704 21.5463 14.3521C21.5553 15.0003 21.3065 15.6254 20.8546 16.0901L20.1346 16.7861L20.8546 17.4821C21.0795 17.7052 21.2581 17.9706 21.3799 18.2631C21.5018 18.5556 21.5645 18.8693 21.5645 19.1861C21.5645 19.5029 21.5018 19.8166 21.3799 20.1091C21.2581 20.4015 21.0795 20.667 20.8546 20.8901C20.6315 21.115 20.366 21.2936 20.0736 21.4154C19.7811 21.5373 19.4674 21.6 19.1506 21.6C18.8338 21.6 18.5201 21.5373 18.2276 21.4154C17.9351 21.2936 17.6697 21.115 17.4466 20.8901L16.7506 20.1701Z" fill="black"/>
<path d="M31.3317 20.1701L30.6357 20.8901H30.5397C30.3166 21.115 30.0512 21.2936 29.7587 21.4154C29.4663 21.5373 29.1526 21.6 28.8357 21.6C28.5189 21.6 28.2052 21.5373 27.9128 21.4154C27.6203 21.2936 27.3549 21.115 27.1317 20.8901C26.9068 20.667 26.7283 20.4015 26.6064 20.1091C26.4846 19.8166 26.4218 19.5029 26.4218 19.1861C26.4218 18.8693 26.4846 18.5556 26.6064 18.2631C26.7283 17.9706 26.9068 17.7052 27.1317 17.4821L27.8517 16.7861L27.1317 16.0901C26.6798 15.6254 26.431 15.0003 26.44 14.3521C26.449 13.704 26.7151 13.086 27.1797 12.6341C27.6444 12.1822 28.2696 11.9333 28.9177 11.9423C29.5658 11.9513 30.1838 12.2174 30.6357 12.6821L31.2357 13.4021L31.9317 12.6821C32.3837 12.2174 33.0017 11.9513 33.6498 11.9423C34.2979 11.9333 34.9231 12.1822 35.3877 12.6341C35.8524 13.086 36.1185 13.704 36.1275 14.3521C36.1365 15.0003 35.8877 15.6254 35.4357 16.0901L34.7157 16.7861L35.4357 17.4821C35.6607 17.7052 35.8392 17.9706 35.9611 18.2631C36.0829 18.5556 36.1457 18.8693 36.1457 19.1861C36.1457 19.5029 36.0829 19.8166 35.9611 20.1091C35.8392 20.4015 35.6607 20.667 35.4357 20.8901C35.2126 21.115 34.9472 21.2936 34.6547 21.4154C34.3623 21.5373 34.0486 21.6 33.7317 21.6C33.4149 21.6 33.1012 21.5373 32.8088 21.4154C32.5163 21.2936 32.2509 21.115 32.0277 20.8901L31.3317 20.1701Z" fill="black"/>
<path fill-rule="evenodd" clip-rule="evenodd" d="M18.3695 24.1931C19.8306 22.6196 21.8545 21.6875 24 21.6C26.1455 21.6875 28.1694 22.6196 29.6305 24.1931C31.0916 25.7666 31.8715 27.8539 31.8 30C31.8715 32.1461 31.0916 34.2334 29.6305 35.8069C28.1694 37.3804 26.1455 38.3125 24 38.4C21.8545 38.3125 19.8306 37.3804 18.3695 35.8069C16.9084 34.2334 16.1286 32.1461 16.2 30C16.1286 27.8539 16.9084 25.7666 18.3695 24.1931ZM21.7615 32.4154C22.3229 33.0892 23.1271 33.5147 24 33.6C24.8729 33.5147 25.6771 33.0892 26.2385 32.4154C26.8 31.7417 27.0736 30.8739 27 30C27.0736 29.1261 26.8 28.2583 26.2385 27.5845C25.6771 26.9108 24.8729 26.4852 24 26.4C23.1271 26.4852 22.3229 26.9108 21.7615 27.5845C21.2 28.2583 20.9264 29.1261 21 30C20.9264 30.8739 21.2 31.7417 21.7615 32.4154Z" fill="black"/>
</svg>
