<svg width="48" height="48" viewBox="0 0 48 48" fill="none" xmlns="http://www.w3.org/2000/svg">
<circle cx="24" cy="24" r="24" fill="#FFBE0A"/>
<path d="M24 0C19.2533 0 14.6131 1.40758 10.6663 4.04473C6.71954 6.68188 3.6434 10.4302 1.8269 14.8156C0.010399 19.201 -0.464881 24.0266 0.461164 28.6822C1.38721 33.3377 3.67299 37.6141 7.02945 40.9706C10.3859 44.327 14.6623 46.6128 19.3178 47.5388C23.9734 48.4649 28.799 47.9896 33.1844 46.1731C37.5698 44.3566 41.3181 41.2805 43.9553 37.3337C46.5924 33.3869 48 28.7467 48 24C48 20.8483 47.3792 17.7274 46.1731 14.8156C44.967 11.9038 43.1992 9.25804 40.9706 7.02944C38.742 4.80083 36.0962 3.033 33.1844 1.82689C30.2726 0.620778 27.1517 0 24 0ZM24 43.2C20.2026 43.2 16.4905 42.0739 13.3331 39.9642C10.1756 37.8545 7.71472 34.8559 6.26152 31.3475C4.80832 27.8392 4.42809 23.9787 5.16893 20.2543C5.90976 16.5298 7.73839 13.1087 10.4236 10.4235C13.1087 7.73838 16.5298 5.90976 20.2543 5.16892C23.9787 4.42809 27.8392 4.80831 31.3475 6.26151C34.8559 7.71471 37.8545 10.1756 39.9642 13.333C42.0739 16.4905 43.2 20.2026 43.2 24C43.2 29.0921 41.1772 33.9757 37.5765 37.5764C33.9758 41.1771 29.0922 43.2 24 43.2ZM24 21.6C21.8545 21.6875 19.8306 22.6196 18.3695 24.1931C16.9084 25.7666 16.1286 27.8539 16.2 30C16.1286 32.1461 16.9084 34.2334 18.3695 35.8069C19.8306 37.3804 21.8545 38.3125 24 38.4C26.1455 38.3125 28.1694 37.3804 29.6305 35.8069C31.0916 34.2334 31.8715 32.1461 31.8 30C31.8715 27.8539 31.0916 25.7666 29.6305 24.1931C28.1694 22.6196 26.1455 21.6875 24 21.6ZM24 33.6C23.1271 33.5147 22.3229 33.0892 21.7615 32.4154C21.2 31.7417 20.9264 30.8739 21 30C20.9264 29.1261 21.2 28.2583 21.7615 27.5845C22.3229 26.9108 23.1271 26.4852 24 26.4C24.8729 26.4852 25.6771 26.9108 26.2385 27.5845C26.8 28.2583 27.0736 29.1261 27 30C27.0736 30.8739 26.8 31.7417 26.2385 32.4154C25.6771 33.0892 24.8729 33.5147 24 33.6Z" fill="black"/>
<path d="M16.7506 20.1701L16.0546 20.8901H15.9586C15.7355 21.115 15.47 21.2936 15.1776 21.4154C14.8851 21.5373 14.5714 21.6 14.2546 21.6C13.9378 21.6 13.6241 21.5373 13.3316 21.4154C13.0391 21.2936 12.7737 21.115 12.5506 20.8901C12.3256 20.667 12.1471 20.4015 12.0252 20.1091C11.9034 19.8166 11.8407 19.5029 11.8407 19.1861C11.8407 18.8693 11.9034 18.5556 12.0252 18.2631C12.1471 17.9706 12.3256 17.7052 12.5506 17.4821L13.2706 16.7861L12.5506 16.0901C12.0987 15.6254 11.8498 15.0003 11.8588 14.3521C11.8678 13.704 12.1339 13.086 12.5986 12.6341C13.0632 12.1822 13.6884 11.9333 14.3365 11.9423C14.9847 11.9513 15.6027 12.2174 16.0546 12.6821L16.6546 13.4021L17.3506 12.6821C17.8025 12.2174 18.4205 11.9513 19.0686 11.9423C19.7168 11.9333 20.3419 12.1822 20.8066 12.6341C21.2712 13.086 21.5373 13.704 21.5463 14.3521C21.5553 15.0003 21.3065 15.6254 20.8546 16.0901L20.1346 16.7861L20.8546 17.4821C21.0795 17.7052 21.2581 17.9706 21.3799 18.2631C21.5018 18.5556 21.5645 18.8693 21.5645 19.1861C21.5645 19.5029 21.5018 19.8166 21.3799 20.1091C21.2581 20.4015 21.0795 20.667 20.8546 20.8901C20.6315 21.115 20.366 21.2936 20.0736 21.4154C19.7811 21.5373 19.4674 21.6 19.1506 21.6C18.8338 21.6 18.5201 21.5373 18.2276 21.4154C17.9351 21.2936 17.6697 21.115 17.4466 20.8901L16.7506 20.1701Z" fill="black"/>
<path d="M31.3317 20.1701L30.6357 20.8901H30.5397C30.3166 21.115 30.0512 21.2936 29.7587 21.4154C29.4663 21.5373 29.1526 21.6 28.8357 21.6C28.5189 21.6 28.2052 21.5373 27.9128 21.4154C27.6203 21.2936 27.3549 21.115 27.1317 20.8901C26.9068 20.667 26.7283 20.4015 26.6064 20.1091C26.4846 19.8166 26.4218 19.5029 26.4218 19.1861C26.4218 18.8693 26.4846 18.5556 26.6064 18.2631C26.7283 17.9706 26.9068 17.7052 27.1317 17.4821L27.8517 16.7861L27.1317 16.0901C26.6798 15.6254 26.431 15.0003 26.44 14.3521C26.449 13.704 26.7151 13.086 27.1797 12.6341C27.6444 12.1822 28.2696 11.9333 28.9177 11.9423C29.5658 11.9513 30.1838 12.2174 30.6357 12.6821L31.2357 13.4021L31.9317 12.6821C32.3837 12.2174 33.0017 11.9513 33.6498 11.9423C34.2979 11.9333 34.9231 12.1822 35.3877 12.6341C35.8524 13.086 36.1185 13.704 36.1275 14.3521C36.1365 15.0003 35.8877 15.6254 35.4357 16.0901L34.7157 16.7861L35.4357 17.4821C35.6607 17.7052 35.8392 17.9706 35.9611 18.2631C36.0829 18.5556 36.1457 18.8693 36.1457 19.1861C36.1457 19.5029 36.0829 19.8166 35.9611 20.1091C35.8392 20.4015 35.6607 20.667 35.4357 20.8901C35.2126 21.115 34.9472 21.2936 34.6547 21.4154C34.3623 21.5373 34.0486 21.6 33.7317 21.6C33.4149 21.6 33.1012 21.5373 32.8088 21.4154C32.5163 21.2936 32.2509 21.115 32.0277 20.8901L31.3317 20.1701Z" fill="black"/>
</svg>
