<svg width="48" height="48" viewBox="0 0 48 48" fill="none" xmlns="http://www.w3.org/2000/svg">
<path d="M48 24C48 37.2548 37.2548 48 24 48C10.7452 48 0 37.2548 0 24C0 10.7452 10.7452 0 24 0C37.2548 0 48 10.7452 48 24Z" fill="#FFBE0A"/>
<path d="M15.264 31.992C14.7803 32.3983 14.4762 32.9789 14.4178 33.6079C14.3594 34.2369 14.5513 34.8636 14.952 35.352C15.1535 35.595 15.4009 35.7959 15.6802 35.9431C15.9594 36.0904 16.2649 36.1811 16.5793 36.2101C16.8936 36.2391 17.2106 36.2057 17.512 36.112C17.8135 36.0183 18.0935 35.8661 18.336 35.664C19.9404 34.3705 21.9391 33.6651 24 33.6651C26.0609 33.6651 28.0596 34.3705 29.664 35.664C29.9065 35.8661 30.1865 36.0183 30.488 36.112C30.7894 36.2057 31.1064 36.2391 31.4207 36.2101C31.7351 36.1811 32.0406 36.0904 32.3198 35.9431C32.5991 35.7959 32.8465 35.595 33.048 35.352C33.4487 34.8636 33.6406 34.2369 33.5822 33.6079C33.5238 32.9789 33.2197 32.3983 32.736 31.992C30.2595 30.0013 27.1774 28.9162 24 28.9162C20.8226 28.9162 17.7405 30.0013 15.264 31.992ZM16.8 21.6C17.2747 21.6 17.7387 21.4592 18.1334 21.1955C18.5281 20.9318 18.8357 20.557 19.0173 20.1184C19.199 19.6799 19.2465 19.1973 19.1539 18.7318C19.0613 18.2662 18.8327 17.8386 18.4971 17.5029C18.1614 17.1673 17.7338 16.9387 17.2682 16.8461C16.8027 16.7535 16.3201 16.801 15.8816 16.9827C15.443 17.1643 15.0682 17.4719 14.8045 17.8666C14.5408 18.2613 14.4 18.7253 14.4 19.2C14.4 19.8365 14.6529 20.447 15.1029 20.8971C15.553 21.3471 16.1635 21.6 16.8 21.6ZM24 0C19.2533 0 14.6131 1.40758 10.6663 4.04473C6.71954 6.68188 3.6434 10.4302 1.8269 14.8156C0.0103988 19.201 -0.464881 24.0266 0.461164 28.6822C1.38721 33.3377 3.67299 37.6141 7.02945 40.9706C10.3859 44.327 14.6623 46.6128 19.3178 47.5388C23.9734 48.4649 28.799 47.9896 33.1844 46.1731C37.5698 44.3566 41.3181 41.2805 43.9553 37.3337C46.5924 33.3869 48 28.7467 48 24C48 20.8483 47.3792 17.7274 46.1731 14.8156C44.967 11.9038 43.1992 9.25804 40.9706 7.02944C38.742 4.80083 36.0962 3.033 33.1844 1.82689C30.2726 0.620778 27.1517 0 24 0ZM24 43.2C20.2026 43.2 16.4905 42.0739 13.3331 39.9642C10.1756 37.8545 7.71472 34.8559 6.26152 31.3475C4.80832 27.8392 4.4281 23.9787 5.16893 20.2543C5.90977 16.5298 7.73839 13.1087 10.4236 10.4235C13.1087 7.73838 16.5298 5.90976 20.2543 5.16892C23.9787 4.42809 27.8392 4.80831 31.3475 6.26151C34.8559 7.71471 37.8545 10.1756 39.9642 13.333C42.0739 16.4905 43.2 20.2026 43.2 24C43.2 29.0921 41.1771 33.9757 37.5765 37.5764C33.9758 41.1771 29.0922 43.2 24 43.2ZM31.2 16.8C30.7253 16.8 30.2613 16.9408 29.8666 17.2045C29.472 17.4682 29.1643 17.843 28.9827 18.2816C28.801 18.7201 28.7535 19.2027 28.8461 19.6682C28.9387 20.1338 29.1673 20.5614 29.5029 20.8971C29.8386 21.2327 30.2662 21.4613 30.7318 21.5539C31.1973 21.6465 31.6799 21.599 32.1184 21.4173C32.557 21.2357 32.9318 20.928 33.1955 20.5334C33.4592 20.1387 33.6 19.6747 33.6 19.2C33.6 18.5635 33.3471 17.953 32.8971 17.5029C32.447 17.0529 31.8365 16.8 31.2 16.8Z" fill="#272D33"/>
</svg>
