<svg width="48" height="48" viewBox="0 0 48 48" fill="none" xmlns="http://www.w3.org/2000/svg">
<circle cx="24" cy="24" r="24" fill="#FFBE0A"/>
<path fill-rule="evenodd" clip-rule="evenodd" d="M18.1334 21.1955C17.7387 21.4592 17.2747 21.6 16.8 21.6C16.1635 21.6 15.553 21.3471 15.1029 20.8971C14.6529 20.447 14.4 19.8365 14.4 19.2C14.4 18.7253 14.5408 18.2613 14.8045 17.8666C15.0682 17.4719 15.443 17.1643 15.8816 16.9827C16.3201 16.801 16.8027 16.7535 17.2682 16.8461C17.7338 16.9387 18.1614 17.1673 18.4971 17.5029C18.8327 17.8386 19.0613 18.2662 19.1539 18.7318C19.2465 19.1973 19.199 19.6799 19.0173 20.1184C18.8357 20.557 18.5281 20.9318 18.1334 21.1955ZM16.8 26.4H31.2C31.8365 26.4 32.447 26.6529 32.8971 27.1029C33.3471 27.553 33.6 28.1635 33.6 28.8C33.6 31.3461 32.5886 33.7879 30.7882 35.5882C28.9879 37.3886 26.5461 38.4 24 38.4C21.4539 38.4 19.0121 37.3886 17.2118 35.5882C15.4114 33.7879 14.4 31.3461 14.4 28.8C14.4 28.1635 14.6529 27.553 15.1029 27.1029C15.553 26.6529 16.1635 26.4 16.8 26.4ZM21.6028 32.9557C22.3315 33.3769 23.1583 33.5991 24 33.6C24.8417 33.5991 25.6685 33.3769 26.3972 32.9557C27.126 32.5344 27.7311 31.929 28.152 31.2H19.848C20.2689 31.929 20.874 32.5344 21.6028 32.9557ZM29.8666 17.2045C30.2613 16.9408 30.7253 16.8 31.2 16.8C31.8365 16.8 32.447 17.0529 32.8971 17.5029C33.3471 17.953 33.6 18.5635 33.6 19.2C33.6 19.6747 33.4592 20.1387 33.1955 20.5334C32.9318 20.928 32.557 21.2357 32.1184 21.4173C31.6799 21.599 31.1973 21.6465 30.7318 21.5539C30.2662 21.4613 29.8386 21.2327 29.5029 20.8971C29.1673 20.5614 28.9387 20.1338 28.8461 19.6682C28.7535 19.2027 28.801 18.7201 28.9827 18.2816C29.1643 17.843 29.472 17.4682 29.8666 17.2045Z" fill="black"/>
<path d="M24 33.6C23.1583 33.5991 22.3315 33.3769 21.6028 32.9557C20.874 32.5344 20.2689 31.929 19.848 31.2H28.152C27.7311 31.929 27.126 32.5344 26.3972 32.9557C25.6685 33.3769 24.8417 33.5991 24 33.6Z" fill="black"/>
</svg>
