<svg width="48" height="48" viewBox="0 0 48 48" fill="none" xmlns="http://www.w3.org/2000/svg">
<circle cx="24" cy="24" r="24" fill="#FFBE0A"/>
<path fill-rule="evenodd" clip-rule="evenodd" d="M31.2 26.4H16.8C16.1635 26.4 15.553 26.6529 15.1029 27.1029C14.6529 27.553 14.4 28.1635 14.4 28.8C14.4 31.3461 15.4114 33.7879 17.2118 35.5882C19.0121 37.3886 21.4539 38.4 24 38.4C26.5461 38.4 28.9879 37.3886 30.7882 35.5882C32.5886 33.7879 33.6 31.3461 33.6 28.8C33.6 28.1635 33.3471 27.553 32.8971 27.1029C32.447 26.6529 31.8365 26.4 31.2 26.4ZM24 33.6C23.1583 33.5991 22.3315 33.3769 21.6028 32.9557C20.874 32.5344 20.2689 31.929 19.848 31.2H28.152C27.7311 31.929 27.126 32.5344 26.3972 32.9557C25.6685 33.3769 24.8417 33.5991 24 33.6Z" fill="black"/>
<path d="M36.7606 15.4961C36.1562 14.9269 35.3551 14.5795 34.5019 14.5166C33.6486 14.4537 32.7914 15.0224 32.0999 15.4961C31.3745 14.9892 30.4799 14.4166 29.5813 14.5101C28.6827 14.6036 27.8552 15.0134 27.2654 15.6571C26.6756 16.3007 26.3673 17.1304 26.4026 17.9791C26.438 18.8277 26.8143 19.6322 27.4558 20.2306L30.9964 23.562C31.2929 23.8361 31.6922 23.9897 32.1082 23.9897C32.5242 23.9897 32.9235 23.8361 33.22 23.562L36.7606 20.2306C37.4263 19.6015 37.7999 18.7504 37.7999 17.8634C37.7999 16.9763 37.4263 16.1253 36.7606 15.4961Z" fill="black"/>
<path d="M18.3021 14.5166C19.1553 14.5795 19.9565 14.9269 20.5609 15.4961C21.2266 16.1253 21.6002 16.9763 21.6002 17.8634C21.6002 18.7504 21.2266 19.6015 20.5609 20.2306L17.0203 23.562C16.7238 23.8361 16.3245 23.9897 15.9085 23.9897C15.4925 23.9897 15.0932 23.8361 14.7967 23.562L11.2561 20.2306C10.6146 19.6322 10.2383 18.8277 10.2029 17.9791C10.1676 17.1304 10.4759 16.3007 11.0657 15.6571C11.6555 15.0134 12.483 14.6036 13.3816 14.5101C14.2801 14.4166 15.1748 14.9893 15.9002 15.4961C16.5916 15.0224 17.4489 14.4537 18.3021 14.5166Z" fill="black"/>
<path fill-rule="evenodd" clip-rule="evenodd" d="M24 0C19.2533 0 14.6131 1.40758 10.6663 4.04473C6.71954 6.68188 3.6434 10.4302 1.8269 14.8156C0.0103989 19.201 -0.464881 24.0266 0.461164 28.6822C1.38721 33.3377 3.67299 37.6141 7.02945 40.9706C10.3859 44.327 14.6623 46.6128 19.3178 47.5388C23.9734 48.4649 28.799 47.9896 33.1844 46.1731C37.5698 44.3566 41.3181 41.2805 43.9553 37.3337C46.5924 33.3869 48 28.7467 48 24C48 20.8483 47.3792 17.7274 46.1731 14.8156C44.967 11.9038 43.1992 9.25804 40.9706 7.02944C38.742 4.80083 36.0962 3.033 33.1844 1.82689C30.2726 0.620778 27.1517 0 24 0ZM24 43.2C20.2026 43.2 16.4905 42.0739 13.3331 39.9642C10.1756 37.8545 7.71472 34.8559 6.26152 31.3475C4.80832 27.8392 4.4281 23.9787 5.16893 20.2543C5.90977 16.5298 7.73839 13.1087 10.4236 10.4235C13.1087 7.73838 16.5298 5.90976 20.2543 5.16892C23.9787 4.42809 27.8392 4.80831 31.3475 6.26151C34.8559 7.71471 37.8545 10.1756 39.9642 13.333C42.0739 16.4905 43.2 20.2026 43.2 24C43.2 29.0921 41.1771 33.9757 37.5765 37.5764C33.9758 41.1771 29.0922 43.2 24 43.2Z" fill="black"/>
</svg>
